<svg xmlns="http://www.w3.org/2000/svg" viewBox="0 0 500 700.7" class="injected-svg" data-src="/user.svg"><path d="M249.9 336.3c-92.7 0-168.2-75.4-168.2-168.2C81.8 75.4 157.2 0 249.9 0c92.7 0 168.2 75.4 168.2 168.1 0 92.8-75.5 168.2-168.2 168.2zm0-290.8c-67.7 0-122.7 55-122.7 122.7s55 122.7 122.7 122.7 122.7-55 122.7-122.7-55-122.7-122.7-122.7zm227.4 655.2c-12.6 0-22.7-10.2-22.7-22.7 0-137.2-15.4-250.8-204.5-250.8S45.5 540.8 45.5 678c0 12.5-10.2 22.7-22.7 22.7S0 690.5 0 678c0-143.3 19.3-296.2 250-296.2S500 534.7 500 678c0 12.5-10.2 22.7-22.7 22.7z"></path></svg>
